<?xml version="1.0" encoding="UTF-8" standalone="no"?>
<svg
   width="16"
   height="16"
   fill="currentColor"
   class="bi bi-layout-sidebar-reverse"
   viewBox="0 0 16 16"
   version="1.1"
   id="svg8943"
   sodipodi:docname="layout-sidebar-reverse.svg"
   inkscape:version="1.1.2 (0a00cf5339, 2022-02-04)"
   xmlns:inkscape="http://www.inkscape.org/namespaces/inkscape"
   xmlns:sodipodi="http://sodipodi.sourceforge.net/DTD/sodipodi-0.dtd"
   xmlns="http://www.w3.org/2000/svg"
   xmlns:svg="http://www.w3.org/2000/svg">
  <defs
     id="defs8947" />
  <sodipodi:namedview
     id="namedview8945"
     pagecolor="#333333"
     bordercolor="#666666"
     borderopacity="1.0"
     inkscape:pageshadow="2"
     inkscape:pageopacity="0"
     inkscape:pagecheckerboard="0"
     showgrid="false"
     inkscape:zoom="44.9375"
     inkscape:cx="12.383866"
     inkscape:cy="7.9888734"
     inkscape:window-width="1200"
     inkscape:window-height="1883"
     inkscape:window-x="5040"
     inkscape:window-y="0"
     inkscape:window-maximized="1"
     inkscape:current-layer="svg8943" />
  <path
     d="M16 3a2 2 0 0 0-2-2H2a2 2 0 0 0-2 2v10a2 2 0 0 0 2 2h12a2 2 0 0 0 2-2zm-5-1v12H2a1 1 0 0 1-1-1V3a1 1 0 0 1 1-1zm1 0h2a1 1 0 0 1 1 1v10a1 1 0 0 1-1 1h-2z"
     id="path8941"
     style="fill:#ffffff;fill-opacity:1" />
</svg>
